<?xml version="1.0" encoding="iso-8859-1"?>
<!-- Uploaded to: SVG Repo, www.svgrepo.com, Generator: SVG Repo Mixer Tools -->
<svg fill="currentColor" height="800px" width="800px" version="1.1" id="Layer_1" xmlns="http://www.w3.org/2000/svg" xmlns:xlink="http://www.w3.org/1999/xlink" 
	 viewBox="0 0 512 512" xml:space="preserve">
<path d="M220.575,113.444V68.918C220.575,30.917,189.664,0,151.669,0c-38.002,0-68.918,30.917-68.918,68.918v137.007
	C117.726,161.223,165.121,124.711,220.575,113.444z"/>
<path d="M429.249,205.822V68.918C429.249,30.917,398.333,0,360.332,0c-37.995,0-68.905,30.917-68.905,68.918v44.479
	C342.092,123.6,390.046,155.531,429.249,205.822z"/>
<path d="M256,145.584c-113.064,0-203.516,138.251-203.516,234.075c0,96.539,87.842,129.089,185.645,132.341v-72.163l-35.254-36.945
	c-16.024-16.787-4.098-44.713,19.134-44.713c0.001,0,67.968,0,67.97,0c23.244,0,35.158,27.927,19.134,44.713l-35.254,36.945V512
	c97.814-3.253,185.657-35.802,185.657-132.341C459.516,283.834,369.064,145.584,256,145.584z M165.756,328.417
	c-13.057-0.012-23.632-10.606-23.62-23.662c0.012-13.057,10.606-23.632,23.662-23.62c13.057,0.012,23.631,10.606,23.62,23.663
	C189.406,317.854,178.813,328.428,165.756,328.417z M346.201,328.574c-13.057-0.012-23.631-10.606-23.62-23.662
	c0.012-13.057,10.606-23.632,23.662-23.62s23.632,10.606,23.62,23.663C369.853,318.01,359.258,328.585,346.201,328.574z"/>
</svg>