<?xml version="1.0" encoding="iso-8859-1"?>
<!-- Uploaded to: SVG Repo, www.svgrepo.com, Generator: SVG Repo Mixer Tools -->
<svg fill="#000000" height="800px" width="800px" version="1.1" id="Layer_1" xmlns="http://www.w3.org/2000/svg" xmlns:xlink="http://www.w3.org/1999/xlink" 
	 viewBox="0 0 512 512" xml:space="preserve">
<path d="M208.819,458.403c29.599,3.618,64.738,3.62,94.35,0l-47.175-49.442L208.819,458.403z"/>
<path d="M18.069,158.087c-31.231,32.694-19.481,83.05,16.141,102.041C46.726,196.99,79.163,128.754,124.824,81.03
	C84.026,100.198,47.539,127.239,18.069,158.087z"/>
<path d="M493.92,158.087c-29.464-30.842-65.95-57.886-106.754-77.056c45.647,47.709,78.093,115.937,90.613,179.097
	C513.267,241.209,525.265,190.898,493.92,158.087z"/>
<path d="M255.996,50.882c-110.505,0-194.747,158.133-194.747,262.967c0,71.503,38.465,118.109,109.364,137.262l69.044-72.362
	v-19.068l-48.424-50.751c-16.743-17.546-4.285-46.722,19.997-46.722h89.53c24.253,0,36.762,29.152,19.997,46.722l-48.424,50.751
	v19.068l69.044,72.362c70.804-19.128,109.364-65.666,109.364-137.262C450.742,209.35,366.764,50.882,255.996,50.882z
	 M173.494,235.272c-11.937-0.011-21.605-9.696-21.594-21.633c0.011-11.937,9.696-21.605,21.633-21.594
	c11.937,0.011,21.605,9.696,21.594,21.633C195.117,225.615,185.431,235.283,173.494,235.272z M338.466,235.415
	c-11.937-0.011-21.605-9.696-21.594-21.633c0.011-11.937,9.696-21.605,21.633-21.594c11.937,0.011,21.605,9.696,21.594,21.633
	C360.089,225.758,350.403,235.426,338.466,235.415z"/>
</svg>