<?xml version="1.0" encoding="iso-8859-1"?>
<!-- Uploaded to: SVG Repo, www.svgrepo.com, Generator: SVG Repo Mixer Tools -->
<svg fill="#000000" height="800px" width="800px" version="1.1" id="Layer_1" xmlns="http://www.w3.org/2000/svg" xmlns:xlink="http://www.w3.org/1999/xlink" 
	 viewBox="0 0 512 512" xml:space="preserve">
<g>
	<g>
		<path d="M507.058,214.991l-28.839-36.132l2.09-46.194c0.315-6.961-3.445-13.472-9.632-16.679l-41.042-21.274l-16.869-43.043
			c-2.543-6.488-8.626-10.909-15.584-11.322l-46.144-2.742L318.121,5.148c-4.963-4.894-12.317-6.457-18.84-4.005l-43.282,16.261
			L212.718,1.144c-6.524-2.453-13.877-0.89-18.84,4.005l-32.916,32.455l-46.144,2.742c-6.958,0.414-13.041,4.834-15.584,11.322
			L82.364,94.711l-41.042,21.274c-6.187,3.207-9.947,9.718-9.632,16.679l2.09,46.194L4.942,214.991
			c-4.348,5.448-5.133,12.926-2.012,19.157l20.7,41.334l-11.654,44.739c-1.757,6.746,0.567,13.898,5.953,18.322l22.811,18.735
			c6.498-114.253,96.614-247.709,215.258-247.709c118.468,0,208.752,133.265,215.26,247.708l22.81-18.734
			c5.387-4.424,7.71-11.576,5.953-18.322l-11.653-44.739l20.7-41.334C512.191,227.917,511.405,220.439,507.058,214.991z"/>
	</g>
</g>
<g>
	<g>
		<path d="M255.999,145.322C95.318,145.322-44.364,497.27,238.122,512v-97.746l-32.809-37.884
			c-9.99-11.537-1.797-29.581,13.514-29.581h74.345c15.26,0,23.537,18.006,13.514,29.581l-32.809,37.884V512
			C557.209,497.227,416.753,145.322,255.999,145.322z M176.265,321.337c-13.061,0-23.649-10.588-23.649-23.649
			s10.588-23.649,23.649-23.649s23.649,10.588,23.649,23.649C199.914,310.748,189.326,321.337,176.265,321.337z M335.735,321.337
			c-13.061,0-23.649-10.588-23.649-23.649s10.588-23.649,23.649-23.649c13.061,0,23.649,10.588,23.649,23.649
			C359.384,310.748,348.796,321.337,335.735,321.337z"/>
	</g>
</g>
</svg>